<?xml version="1.0" encoding="UTF-8" standalone="no"?>
<svg width="32px" height="40px" viewBox="0 0 32 40" version="1.1" xmlns="http://www.w3.org/2000/svg" xmlns:xlink="http://www.w3.org/1999/xlink" xmlns:sketch="http://www.bohemiancoding.com/sketch/ns">
    <!-- Generator: Sketch 3.3.2 (12043) - http://www.bohemiancoding.com/sketch -->
    <title>Slice 1</title>
    <desc>Created with Sketch.</desc>
    <defs></defs>
    <g id="Page-1" stroke="none" stroke-width="1" fill="none" fill-rule="evenodd" sketch:type="MSPage">
        <path d="M16.0000477,30.5636665 L7.93766791,30.5636665 L7.93766791,27.7011137 L16.0000477,27.7011137 L16.0000477,30.5636665 L16.0000477,30.5636665 Z M23.9670091,25.275959 L7.93766791,25.275959 L7.93766791,22.4134063 L23.9670091,22.4134063 L23.9670091,25.275959 L23.9670091,25.275959 Z M23.9670091,19.9960759 L7.93766791,19.9960759 L7.93766791,17.1335232 L23.9670091,17.1335232 L23.9670091,19.9960759 L23.9670091,19.9960759 Z M19.9902554,3.81673699 L19.9902554,11.9988669 L28.183263,11.9988669 L28.183263,35.495654 L3.81673699,35.495654 L3.81673699,3.81673699 L19.9902554,3.81673699 L19.9902554,3.81673699 Z M22.375716,0 L0,0 L0,39.312391 L32,39.312391 L32,9.61340629 L22.375716,0 L22.375716,0 Z" id="text-file-3-icon" fill="#000000" sketch:type="MSShapeGroup"></path>
    </g>
</svg>