<?xml version="1.0" encoding="UTF-8" standalone="no"?>
<svg width="62px" height="30px" viewBox="0 0 62 30" version="1.1" xmlns="http://www.w3.org/2000/svg" xmlns:xlink="http://www.w3.org/1999/xlink" xmlns:sketch="http://www.bohemiancoding.com/sketch/ns">
    <!-- Generator: Sketch 3.3.2 (12043) - http://www.bohemiancoding.com/sketch -->
    <title>Slice 1</title>
    <desc>Created with Sketch.</desc>
    <defs></defs>
    <g id="Page-1" stroke="none" stroke-width="1" fill="none" fill-rule="evenodd" sketch:type="MSPage">
        <path d="M55.641809,19.597885 C55.2533532,19.8716604 53.8016284,21.0750485 51.229432,20.889621 C48.5191103,20.6941555 47.4206397,18.7962222 46.9434235,17.6355986 C46.7773156,17.2316046 46.6408404,17.4639905 46.6490221,17.7381097 C46.7129626,19.8793608 48.544824,22.7141946 52.4009185,22.9137165 C56.160621,23.1082194 56.419752,20.4045668 56.368187,19.7718995 C56.3166908,19.1393008 56.0302648,19.3241783 55.641809,19.597885 L55.641809,19.597885 Z M39.5578811,4.57021324 C39.3605593,4.37289143 38.8545355,4.42081244 37.6929494,4.49589099 C36.0113825,4.60458987 35.4212047,4.99421451 34.760761,5.73640578 C34.4657408,6.06793393 34.2117663,6.34157185 34.0224886,6.58200194 C33.8971515,6.74123446 33.7958092,6.93786874 33.8746692,7.09785754 C33.9577231,7.28080992 34.3762241,7.41254114 35.5490857,7.38208345 C37.5361232,7.33051852 38.1134442,6.8416142 38.8592794,5.99237411 C39.0055863,5.825785 39.443407,5.28442195 39.4544763,5.27135884 C39.6312409,5.06173019 39.7899233,4.80225545 39.5578811,4.57021324 L39.5578811,4.57021324 Z M39.7469526,23.6750212 C39.9532123,23.4155464 40.1627722,22.9502932 39.3731412,23.0877997 L39.3730037,23.0877997 C37.6212397,23.3628127 34.0447647,23.7135917 28.0252119,24.1136669 C16.2862141,24.8940162 14.2694064,24.7827047 11.7949771,27.3720894 C10.8210186,28.3913563 10.2330409,29.1723244 9.98277907,29.5241347 C9.73251726,29.8758763 9.79845162,30.1068872 10.4864653,29.9498548 C11.1744791,29.7928224 13.2753032,29.1397353 19.6656423,28.0686285 C25.1033365,27.1571668 28.5350172,26.6192414 32.0245194,25.9341153 C38.5398518,24.6548924 39.2656799,24.1934206 39.7469526,23.67784 L39.7469526,23.6750212 L39.7469526,23.6750212 Z M22.5703294,13.0384817 C22.0882317,13.8037053 20.2415882,16.1959744 18.8659733,17.4165508 C18.0883741,18.1064208 17.0264803,18.860919 16.4057072,18.8268173 C15.7300691,18.7896906 15.5188591,17.960389 16.533382,16.7717829 C16.6173985,16.673397 16.7307726,16.6041624 16.6341742,16.795159 C16.4796857,17.1006984 16.2842202,17.5575637 16.3122715,17.8677783 C16.347817,18.2606344 16.7393667,18.3085554 17.0005603,18.1678175 C17.0005603,18.1678175 17.3142813,16.7125863 18.8940934,14.8853313 C20.204324,13.3698723 21.6544674,12.6461756 21.8383136,12.5431833 C22.7564444,12.0285652 23.0241696,12.3179477 22.5703294,13.0384817 L22.5703294,13.0384817 Z M50.6275661,9.74148856 C51.1694104,9.04556821 49.158653,9.0369053 48.5850447,9.02418595 C47.0791424,8.99070312 46.3320009,9.60982609 45.6229486,10.1731214 C45.5479389,10.2327305 44.9388539,10.7006651 44.7801714,10.826346 C42.2248883,12.8495477 39.9350614,15.2770186 39.003455,16.2699529 C38.5157195,16.7897962 38.4142397,16.5838115 38.7185415,16.0287665 C39.9180794,13.6052834 42.3755954,10.77815 42.8768753,10.2049542 C43.3782239,9.63175838 42.1069077,9.53234119 41.7407967,9.49459565 C39.5137416,9.26516608 39.0347377,9.87493861 38.5293326,10.4413966 C37.4485316,11.6529663 36.387394,12.9955109 35.4301426,13.9200358 C35.3563016,13.9913329 35.2878921,14.0661364 35.2245704,14.1433463 C34.4764663,14.8922066 33.1293152,16.2442392 32.2677683,16.9220775 C31.7559004,17.324834 30.8343319,18.1313095 30.1674942,18.0831823 C29.8880123,18.0630375 29.5937484,17.8697722 29.5739474,17.4999485 C29.5454836,16.9662858 29.8707552,16.4561367 30.2167903,16.0592242 C30.2904938,15.958157 30.3560156,16.0115095 30.3083009,16.0965572 C30.1329113,16.4678935 30.0491011,16.7575509 30.0300565,16.9735049 C30.0039302,17.2691438 30.0948908,17.5088864 30.3909423,17.5304062 C30.5610378,17.5427817 30.6944191,17.4430895 30.6944191,17.4430895 C31.1677164,16.053724 31.989524,15.0673212 32.7460159,14.0237157 C33.9199776,12.4040267 35.0719382,11.0138361 35.3768588,10.6652572 C35.8781387,10.0920614 34.6068912,9.99264416 34.2407802,9.95496738 C32.0137251,9.7255378 31.5346525,10.3352416 31.0293161,10.9017683 C29.9485839,12.1131317 28.887515,13.4555388 27.9304011,14.3800637 C27.2109672,15.0792842 25.5798652,16.6542148 24.7276,17.3950998 C23.6135911,18.363558 22.354788,19.0551469 23.3088768,17.4395144 C24.2630343,15.8239506 26.4859642,12.6144116 28.0308496,10.9378638 C28.2972684,10.6487564 27.9630589,10.4407091 26.5733496,10.3640492 C25.1835715,10.2873893 24.4455742,10.4751544 23.9092301,11.005242 C23.9092301,11.005242 23.834014,10.973478 23.6895635,10.9289946 C22.1716293,10.4201518 20.9044383,10.5761529 19.3502712,11.0091609 C18.2952526,11.303081 17.6801174,11.5658559 14.4209385,11.5659934 C14.4214886,11.5653746 14.3895183,11.5665434 14.3900683,11.5658559 C15.9115776,9.79133466 17.1899067,8.35569815 17.9083781,7.53217179 C19.1974327,6.05466455 20.3560624,5.75194402 21.3190891,5.66118973 C21.7793233,5.63093831 22.3012292,5.59676794 22.6205193,5.57586696 C30.2807308,5.0736245 32.0509894,4.82301893 34.1506447,2.62580273 C35.1246032,1.60660462 35.7125122,0.827011581 35.962774,0.47526998 C36.2131045,0.123459626 36.1471014,-0.106794991 35.4590877,0.0502374206 C34.771074,0.207269832 32.6702498,0.860700671 26.2799107,1.93180747 C20.8422853,2.84326924 17.4178237,3.38043834 13.9283215,4.06556443 C7.42316452,5.34279346 6.67904815,5.80151511 6.21530752,6.31572063 C5.9882843,6.57863303 5.7953627,7.01404733 6.58499371,6.89854188 C6.58506247,6.89854188 6.58513122,6.89902315 6.58513122,6.89902315 C8.03699349,6.66244324 10.7313644,6.39430558 15.0124227,6.08299089 C13.5810489,6.82868859 12.4706152,8.29368273 10.3385771,11.5710812 C9.26857037,11.5867569 8.17003102,11.6249837 7.10009302,11.7191756 C3.44200788,12.0413534 1.71210748,12.5807226 0.803670859,13.3555029 C0.284446354,13.7984113 -0.00232343082,14.3310427 1.41795039e-05,14.9558722 C0.0033830885,15.8547521 0.594248475,16.7182241 1.72812699,16.9801052 C1.99062688,17.0280262 2.16244124,17.0176445 2.17351051,16.6716781 C2.17399178,16.6576525 2.17522934,16.6458269 2.17681067,16.6349639 C2.25023913,15.847533 2.75083151,14.7301553 4.101489,13.897691 C4.6724847,13.5458119 5.5433133,13.1441554 6.71583114,12.9112882 C7.66861361,12.7220105 8.47103273,12.6252059 9.49786244,12.6027923 C9.54378961,12.6018298 9.68961524,12.5802413 9.6061488,12.7043409 C9.60594254,12.7046847 9.60573628,12.7050284 9.60553002,12.7053034 C8.96488728,13.7012629 8.23919678,14.8378916 7.40130099,16.1377404 C4.63556421,20.4283554 2.89858223,22.9515308 1.92991776,24.1461871 C1.71602642,24.4167999 1.49237211,24.8412137 2.28193438,24.725777 C2.91975823,24.6191407 3.640636,24.2550235 7.37916244,19.999954 C9.23563756,17.8869605 10.961069,15.7552661 13.5664045,12.5836102 L16.6225549,12.5905543 C16.6855329,12.5907605 16.7500235,12.5907605 16.8165078,12.5904855 C16.9750528,12.5886292 16.9617147,12.6849525 16.9136562,12.7311547 C16.1952535,13.4340191 15.7896781,13.8582954 15.0437742,14.9535345 C12.8031059,18.2435836 13.1412344,20.7763156 14.6265795,20.6928492 C16.1751088,20.6058076 18.5887602,19.0251705 19.632572,18.1995815 C19.6325033,18.1983439 19.6321595,18.1973126 19.6336033,18.1961438 C19.6360784,18.1942187 19.6369035,18.2103758 19.6393098,18.2085194 C19.7264202,18.1407287 19.8105054,18.1375661 19.7852042,18.2750726 L19.785273,18.2750726 C19.6856495,18.8250985 19.5368675,20.3626273 20.8958441,20.3457828 C22.3446813,20.3277694 23.7934496,19.7344977 27.4904491,16.2995168 C27.8883241,15.947844 27.7966761,16.1880678 27.72201,16.3370561 C27.6425313,16.4956011 27.0870051,17.8487337 27.2331057,18.8578251 C27.3792751,19.8669164 28.2815927,20.4097233 30.3712788,19.3032773 C32.1006292,18.3876216 34.3465227,16.4199038 35.105146,15.7351214 C35.3680584,15.5323681 35.2884421,15.7400029 35.2220953,15.8724904 C35.1426165,16.0310354 34.5468009,17.4116693 34.7514105,18.4958392 C34.9404132,19.4977803 35.9911691,20.0663696 37.8569259,18.6138198 C39.331958,17.4655031 41.0354571,15.6932507 42.4405672,14.4557611 C42.63287,14.2864218 43.4708346,13.5562623 43.7505228,13.3706286 C43.9347127,13.2296844 44.0106163,13.3013941 43.8614905,13.5269047 C43.2438801,14.4608488 43.0211883,15.6374231 42.9725111,16.1406281 C42.5780737,20.2162517 46.4686136,21.8833804 46.9851567,22.1247042 C47.5016998,22.3659594 47.5301637,22.1234667 47.2966776,21.7771566 C46.2805047,20.2700167 45.8884737,19.0723352 46.0926708,17.7272467 C46.3578521,15.980708 46.9309104,14.4889001 50.6275661,9.74148856 L50.6275661,9.74148856 Z M58.3112225,11.0220177 C57.6973248,12.1096253 53.7844401,17.3276528 51.8002214,17.2441176 C51.0442795,17.2122161 50.7819859,16.266859 51.8490362,15.1095357 C51.9211584,15.0190564 51.9617228,15.062921 51.917377,15.1402684 C51.8188536,15.3120827 51.58523,15.8227131 51.5660479,16.1431719 C51.546797,16.4650746 51.8002214,16.7852585 52.2563305,16.5709546 C52.2563305,16.5709546 52.6137098,14.8657367 54.4470151,12.9865042 C56.1832408,11.2067577 57.4355811,10.6833393 57.6690672,10.5782155 C58.2439818,10.3192221 58.7788133,10.1934724 58.3112225,11.0220177 L58.3112225,11.0220177 Z M58.3814195,6.43349493 C58.3374175,6.42098184 58.2976093,6.4106001 58.2602076,6.40138717 C57.9188477,6.3300213 57.8885963,6.52459298 57.9689688,6.67144991 C58.0158585,6.74769726 58.067836,6.82944487 58.1022126,6.906311 C58.2441193,7.22401974 59.1403179,9.09534556 58.3369362,8.83071432 C57.4607448,8.54215695 55.3479576,8.34820405 54.0227388,9.12284686 C52.2916009,10.1348259 47.9877165,14.0686115 49.487156,17.4441208 C49.948009,18.4816761 51.4204285,19.4589347 54.5276627,18.2070068 C57.4348936,17.0356578 59.6838123,15.1866768 61.0674026,12.3247542 C61.4991729,11.4317183 62.5035891,7.60161256 58.3814195,6.43349493 L58.3814195,6.43349493 L58.3814195,6.43349493 Z" id="Logotype" fill="#B0BEC5" sketch:type="MSShapeGroup"></path>
    </g>
</svg>