<?xml version="1.0" encoding="UTF-8" standalone="no"?>
<svg width="22px" height="24px" viewBox="0 0 22 24" version="1.1" xmlns="http://www.w3.org/2000/svg" xmlns:xlink="http://www.w3.org/1999/xlink" xmlns:sketch="http://www.bohemiancoding.com/sketch/ns">
    <!-- Generator: Sketch 3.3.2 (12043) - http://www.bohemiancoding.com/sketch -->
    <title>Untitled 2</title>
    <desc>Created with Sketch.</desc>
    <defs></defs>
    <g id="Page-1" stroke="none" stroke-width="1" fill="none" fill-rule="evenodd" sketch:type="MSPage">
        <path d="M15.0187229,6.91883308 C15.0187229,6.91883308 13.6257972,8.02376867 13.2220884,9.52442179 C13.2220884,9.52442179 12.4415644,7.21604385 14.2205261,4.57049919 C15.8548779,2.14025562 18.4421791,1.51755756 18.4421791,1.51755756 C18.4421791,1.51755756 17.482468,4.87032246 18.5918602,7.96813769 C19.2855569,9.90554005 19.7785518,10.1509618 20.158287,11.3731527 C20.158287,11.3731527 16.5106165,10.8266783 15.0187229,6.91883308 L15.0187229,6.91883308 Z M20.903158,9.78428912 C19.6460825,7.59562534 19.1964244,5.73106575 19.4151064,3.39702379 C19.557411,1.87792946 20.0285838,0.695233461 20.3237968,0 C16.9140178,0.0651589273 12.2550009,2.85147145 11.8062649,7.64249673 C11.5198115,10.7029685 13.0751735,12.7706887 14.8684271,14.0394437 C16.3311221,15.0743027 16.5596393,16.2954179 16.4643598,17.312143 C16.3607817,18.4186154 16.3180595,18.5344876 16.2734933,19.0105781 C16.228927,19.4868222 16.5453474,19.9659862 17.2066183,19.9659862 C17.8677355,19.9659862 19.4633609,18.7636196 20.6963092,16.7376995 C21.9291038,14.7116256 22.0932305,11.8566196 20.903158,9.78428912 Z M11.1935558,21.226289 C10.8010655,21.8136414 10.2476756,22.8027047 9.99918036,24 L10.8849729,24 C10.8849729,24 11.2631713,23.1626156 12.410368,22.017724 C11.9164511,21.8715775 11.497221,21.5934226 11.1935558,21.226289 Z M8.17780392,21.139769 C7.72230614,21.5660682 7.52913451,21.8101068 7.1569295,22.2577671 C7.75780546,22.8809262 8.04195371,23.239915 8.4261455,24 L9.31193808,24 C9.29749247,22.9360961 8.88948079,22.0037395 8.17780392,21.139769 Z M6.62244189,8.71316241 C6.34413336,8.5356658 6.00312472,8.43224137 5.62615574,8.43224137 C5.24934044,8.43224137 4.88896854,8.5356658 4.57731216,8.71316241 C4.57746584,8.71147197 4.57761951,8.7099352 4.57761951,8.70839843 C4.62710341,8.18067259 5.12501597,7.75299029 5.6897779,7.75299029 C6.25453983,7.75299029 6.6725405,8.18067259 6.62305659,8.70839843 C6.62290292,8.7099352 6.62259556,8.71147197 6.62244189,8.71316241 Z M5.06907765,2.25074917 C-0.693184473,6.73595779 -1.02743133,12.7737623 1.5034705,16.8521886 C2.31565194,18.1610532 3.15810769,19.0310171 4.42163765,20.0729452 C4.81443533,19.3273058 5.31111848,18.4780883 5.31111848,18.4780883 C2.63545318,16.1272955 2.56629866,14.1407166 2.64482746,13.0823451 C2.71336728,12.1559819 3.00658245,11.2775658 3.43995079,10.5809492 C6.61675585,11.9840176 10.044054,10.078119 10.9903952,7.50311195 C7.04597492,8.34833389 4.39474422,5.34733499 5.06907765,2.25074917 Z M15.3877007,19.3812463 C15.4325743,18.9028507 15.5582819,17.5598699 15.5817944,17.3115283 C15.6048459,17.0633404 15.6017724,16.7728914 15.4739133,16.333376 C14.8158696,14.0667981 11.8870988,13.8932971 9.88853312,12.8160234 C9.01687879,12.3462336 8.62269802,11.6147325 8.47378528,11.2554363 C8.2314371,11.3995851 7.98878156,11.4965551 7.82695998,11.5529544 C7.9535896,12.4877699 7.97172345,13.8063161 7.64516043,15.1780345 C6.7194119,19.0659017 4.29316391,20.4672797 4.12980556,24 L5.01882536,24 C7.64977073,18.7241247 12.7444612,17.4227903 12.7444612,17.4227903 C12.7444612,17.4227903 11.7369567,18.0849832 11.6060241,19.4829803 C11.4750915,20.8809774 12.6814537,21.2960582 13.3264349,21.2960582 C13.9715698,21.2960582 14.434444,20.9807136 14.434444,20.9807136 C13.7080142,22.5286991 13.7358297,24 13.7358297,24 L14.6352995,24 C15.0227185,21.8250134 16.7372896,20.6933381 16.7372896,20.6933381 C15.6059216,20.6429322 15.3429808,19.8596419 15.3877007,19.3812463 Z M6.1306764,4.48167405 C6.45723942,5.30169301 7.08654557,5.97203084 7.90764026,6.37912046 L8.29844015,2.2063366 C8.29844015,2.2063366 6.95269315,2.91939656 6.1306764,4.48167405 Z" id="Fill-7" fill="#B0BEC5" sketch:type="MSShapeGroup"></path>
    </g>
</svg>