<?xml version="1.0" encoding="UTF-8" standalone="no"?>
<svg width="32px" height="43px" viewBox="0 0 32 43" version="1.1" xmlns="http://www.w3.org/2000/svg" xmlns:xlink="http://www.w3.org/1999/xlink" xmlns:sketch="http://www.bohemiancoding.com/sketch/ns">
    <!-- Generator: Sketch 3.3.2 (12043) - http://www.bohemiancoding.com/sketch -->
    <title>Slice 1</title>
    <desc>Created with Sketch.</desc>
    <defs></defs>
    <g id="Page-1" stroke="none" stroke-width="1" fill="none" fill-rule="evenodd" sketch:type="MSPage">
        <path d="M12.1162977,27.3628997 L9.19445955,33.6110809 L6.75697087,32.475754 L9.46185113,26.6927638 C8.24999353,26.4757023 7.13196117,25.9739547 6.18055663,25.2483107 L0,38.5000388 L6.55378641,36.1146408 L8.93576699,42.6666667 L15.5816181,28.4132039 C14.354123,28.3473398 13.1805825,27.9895405 12.1162977,27.3628997 L12.1162977,27.3628997 Z M22.5694239,26.6840647 L25.2379547,32.4651909 L22.8333981,33.6109773 L19.9201553,27.3419806 C18.8681942,27.972246 17.6927896,28.3366731 16.4617735,28.4097864 L23.1110421,42.6666667 L25.4931262,36.1181618 L32,38.5104984 L25.8489579,25.2258382 C24.8993139,25.9548997 23.7829385,26.4617217 22.5694239,26.6840647 L22.5694239,26.6840647 Z M28.3125437,10.1726861 C27.4549644,12.6796634 27.4515469,12.1969709 28.3125437,14.7152362 C28.4010874,14.9756893 28.4443754,15.2421489 28.4443754,15.5060194 C28.4443754,16.3046731 28.0503301,17.0764013 27.3506796,17.5615793 C25.1180324,19.1084531 25.413178,18.7195858 24.5728932,21.2359871 C24.220479,22.2862913 23.2048673,22.9965049 22.0572168,22.9965049 L22.0520388,22.9965049 C19.2984854,22.9868738 19.776,22.839301 17.5572298,24.3992233 C17.0936958,24.725644 16.5468997,24.8889579 16,24.8889579 C15.4531003,24.8889579 14.9062006,24.7257476 14.4426667,24.3992233 C12.2222395,22.8385761 12.6995469,22.9868738 9.94785761,22.9965049 L9.94091909,22.9965049 C8.79513269,22.9965049 7.77941748,22.2863948 7.42876375,21.2359871 C6.58847896,18.7160647 6.87668608,19.1066926 4.65097735,17.5615793 C3.94956634,17.0754693 3.55552104,16.3037411 3.55552104,15.5051909 C3.55552104,15.2413204 3.59891262,14.9756893 3.68745631,14.7152362 C4.54679612,12.2074304 4.54855663,12.6909515 3.68745631,10.1726861 C3.59891262,9.91223301 3.55552104,9.64577346 3.55552104,9.38283495 C3.55552104,8.58335275 3.94956634,7.81245307 4.65097735,7.3264466 C6.87492557,5.78299029 6.58671845,6.17361812 7.42876375,3.65193528 C7.77952104,2.60163107 8.79513269,1.89152104 9.94091909,1.89152104 L9.94785761,1.89152104 C12.6943689,1.90104854 12.2066019,2.05990939 14.4426667,0.48787055 C14.9062006,0.162278317 15.4531003,0 16,0 C16.5468997,0 17.0937994,0.162278317 17.5572298,0.48787055 C19.7761036,2.04862136 19.3003495,1.90104854 22.0520388,1.89152104 L22.0572168,1.89152104 C23.2048673,1.89152104 24.220479,2.60163107 24.5728932,3.65193528 C25.413178,6.16844013 25.1181359,5.77957282 27.3506796,7.3264466 C28.0503301,7.81172816 28.4443754,8.58252427 28.4443754,9.38107443 C28.4443754,9.64494498 28.4010874,9.91233657 28.3125437,10.1726861 L28.3125437,10.1726861 Z M24.8889579,12.4435469 C24.8889579,7.53553398 20.9097735,3.55469256 16,3.55469256 C11.0902265,3.55469256 7.11114563,7.53553398 7.11114563,12.4435469 C7.11114563,17.3515599 11.0903301,21.3324013 16,21.3324013 C20.9097735,21.3325049 24.8889579,17.3515599 24.8889579,12.4435469 L24.8889579,12.4435469 Z M16,7.11114563 C18.9392362,7.11114563 21.3315728,9.50358576 21.3315728,12.444479 C21.3315728,15.3854757 18.9391327,17.7778123 16,17.7778123 C13.0590032,17.7778123 10.6666667,15.3854757 10.6666667,12.444479 C10.6666667,9.5034822 13.0590032,7.11114563 16,7.11114563 L16,7.11114563 Z M16,5.33333333 C12.0729061,5.33333333 8.88885437,8.51738511 8.88885437,12.444479 C8.88885437,16.3715728 12.0729061,19.5556246 16,19.5556246 C19.9253333,19.5556246 23.1093851,16.3715728 23.1093851,12.444479 C23.1093851,8.51738511 19.9253333,5.33333333 16,5.33333333 L16,5.33333333 Z" id="award-7" fill="#000000" sketch:type="MSShapeGroup"></path>
    </g>
</svg>