<?xml version="1.0" encoding="UTF-8" standalone="no"?>
<svg width="32px" height="32px" viewBox="0 0 32 32" version="1.1" xmlns="http://www.w3.org/2000/svg" xmlns:xlink="http://www.w3.org/1999/xlink" xmlns:sketch="http://www.bohemiancoding.com/sketch/ns">
    <!-- Generator: Sketch 3.3.2 (12043) - http://www.bohemiancoding.com/sketch -->
    <title>Slice 1</title>
    <desc>Created with Sketch.</desc>
    <defs></defs>
    <g id="Page-1" stroke="none" stroke-width="1" fill="none" fill-rule="evenodd" sketch:type="MSPage">
        <path d="M0,8.8817842e-16 C3.7317311,1.59961291 11.5767082,1.27347673 11.0754262,8.49468632 L8.21864727,11.4093294 C1.1015931,11.5337567 1.23308835,3.93553709 0,8.8817842e-16 L0,8.8817842e-16 Z M14.5115454,20.5360939 C18.1222667,23.2665815 30.2769948,31.8029766 30.2769948,31.8029766 C31.2821995,32.4865499 32.4930742,31.2470926 31.7912484,30.2536161 C31.7912484,30.2536161 22.9815327,18.3018397 20.1664625,14.7621864 C17.9424608,11.9607861 16.8305376,11.8625336 12.8865345,10.7004356 L10.2824159,13.362496 C11.5311159,17.271936 11.660048,18.3773349 14.5115454,20.5360939 L14.5115454,20.5360939 Z M8.00909371,24.9788159 L11.5025334,21.4762111 C11.156203,21.150774 10.850261,20.8303854 10.5819889,20.5113172 L7.06641335,24.0360578 L8.00909371,24.9788159 L8.00909371,24.9788159 Z M19.0011801,10.0956196 L25.4060007,3.67643009 L28.2783913,6.5501411 L22.0167164,12.8247868 C22.6000955,13.5253699 23.1013775,14.1854869 23.6782323,14.9367108 L31.9997146,6.59961686 L25.4008744,7.76699643e-05 L16.4399353,8.9777935 C17.3800526,9.2824151 18.2108105,9.62159983 19.0011801,10.0956196 L19.0011801,10.0956196 Z M25.4502725,5.60738307 L20.1547344,10.9159698 C20.4750453,11.1816011 20.8005601,11.4803974 21.1312788,11.824087 L26.3928752,6.55006343 L25.4502725,5.60738307 L25.4502725,5.60738307 Z M12.515505,22.3460371 L7.7161226,27.1559049 L3.74477966,28.2561777 L4.84373198,24.283592 L9.74602712,19.3695687 C9.27076461,18.5922477 8.92311385,17.7666936 8.6002398,16.831858 L2.4323126,23.0114357 L0,31.9995593 L9.03115277,29.6115962 L14.666497,23.9659218 C13.3332144,22.9945036 13.292826,22.9684842 12.515505,22.3460371 L12.515505,22.3460371 Z" id="paintbrush-8-icon" fill="#000000" sketch:type="MSShapeGroup"></path>
    </g>
</svg>