<?xml version="1.0" encoding="UTF-8" standalone="no"?>
<svg width="144px" height="40px" viewBox="0 0 144 40" version="1.1" xmlns="http://www.w3.org/2000/svg" xmlns:xlink="http://www.w3.org/1999/xlink" xmlns:sketch="http://www.bohemiancoding.com/sketch/ns">
    <!-- Generator: Sketch 3.3.2 (12043) - http://www.bohemiancoding.com/sketch -->
    <title>Slice 1</title>
    <desc>Created with Sketch.</desc>
    <defs>
        <linearGradient x1="50%" y1="100%" x2="50%" y2="0%" id="linearGradient-1">
            <stop stop-color="#FF5722" offset="0%"></stop>
            <stop stop-color="#FF9100" offset="100%"></stop>
        </linearGradient>
    </defs>
    <g id="Page-1" stroke="none" stroke-width="1" fill="none" fill-rule="evenodd" sketch:type="MSPage">
        <path d="M141.028959,16.2540821 C139.944979,14.0602471 137.111418,12.7789252 137.111418,12.7789252 C136.780644,19.0340205 133.175173,22.1434862 133.175173,22.1434862 C133.402444,20.1872102 133.418031,17.2585636 132.448155,14.4967071 C131.112587,10.6938935 128.451428,8.22976501 127.080944,7.50991777 C127.995951,6.26600678 133.197307,4.40201083 137.804143,8.21885351 C141.718877,11.4623748 141.028959,16.2540821 141.028959,16.2540821 L141.028959,16.2540821 Z M80.256892,30.6669265 C78.6002145,29.707338 79.1707301,25.1834301 82.2218972,20.6473637 C84.9553838,16.5842329 88.2572037,14.4823662 90.3247771,15.2524064 C90.3886873,15.2770352 90.4513505,15.3041581 90.5127666,15.3340867 C92.3063055,16.2151124 91.7351664,20.5856358 88.6631115,25.4306535 C86.3470677,29.0841355 83.73049,31.1239624 81.6108532,31.0569346 C81.1304355,31.0369822 80.6758936,30.9097853 80.256892,30.6669265 L80.256892,30.6669265 Z M143.604696,13.2746191 C142.564674,6.83589883 136.546203,2.82826078 130.559842,3.25318577 C123.814353,3.73204474 122.744402,8.20357741 122.744402,8.20357741 C125.465419,9.40508944 129.957215,12.6729278 130.486891,18.7269397 C131.016566,24.7809516 126.488294,30.3046647 119.976934,30.3046647 C113.990885,30.3046647 110.540981,26.717587 108.767706,23.0824987 C109.731036,22.2011613 110.778228,21.2992479 111.918324,20.388917 C118.87799,14.8334048 123.889798,15.3930088 123.889798,15.3930088 C123.647251,14.4789369 123.070812,13.302989 122.093453,12.355559 C121.118589,11.4059468 119.743116,10.6839172 117.900008,10.682982 C114.498114,10.6807997 110.610503,13.7815362 107.169015,17.6641596 C106.794595,15.1847551 106.645887,12.3387241 106.712915,10.6215658 C106.720397,10.4260941 106.622505,10.2440279 106.447298,10.1261837 C106.079736,9.86181365 105.343054,9.89205409 104.511286,10.7431511 C104.023698,11.2428978 103.26301,12.0799657 102.472082,12.7044153 C101.230977,13.6839562 99.6631505,13.8906512 98.5383307,13.7784186 C97.654811,13.6911266 96.9605278,13.4834964 96.3831536,13.2203733 C95.1560775,12.6554694 94.4574298,11.840848 93.5832627,11.4037645 C93.2250538,11.2213865 92.8381632,11.1016718 92.3739568,11.088578 C90.8360588,11.0443085 90.5214958,12.4624917 90.5205606,12.4662328 C90.3384944,12.3727057 90.1523754,12.2879077 89.9612683,12.2133978 C86.982117,11.0327735 82.965438,12.0796539 80.0280622,14.1593858 C76.0145008,17.0013639 74.6446399,20.6448696 74.5673241,20.8568645 C73.9737386,20.4397334 73.3386893,20.1585285 72.6808817,19.9867503 C68.3483927,18.8301313 63.0397921,22.4212618 62.4137838,22.8592806 C66.1857334,15.7403063 73.1385412,7.97225361 73.1385412,7.97225361 C76.7645885,8.02712287 81.1625465,8.63972565 86.555945,8.30146916 C93.0249057,7.89556136 94.1254084,4.76894899 93.9081137,2.64962394 C93.736959,0.981723238 92.7995053,0.0158996142 92.7995053,0.0158996142 C92.7976347,0.0168348856 92.7954524,0.017770157 92.7932701,0.0190171856 C92.7829821,0.00779392853 92.7758117,0 92.7758117,0 C84.9095555,4.8306769 73.0805543,2.9423639 65.2283272,3.62822961 C58.996302,4.17224582 59.6662681,8.56053934 59.6662681,8.56053934 C59.6774913,8.55586298 59.6896499,8.55181014 59.7008731,8.54744554 C59.7027437,8.56209813 59.7039907,8.57207435 59.7039907,8.57207435 C61.6839603,7.78675812 65.3240367,7.78239352 65.8007133,7.78488757 C64.5231326,8.59420911 62.3520558,11.2033046 59.4723551,16.1720899 C56.8944353,20.6202408 55.1164844,24.4193134 53.0211646,26.9068236 C51.8873039,28.2529909 50.1074824,29.8473169 47.6623711,29.7416313 C47.3206853,29.7241729 46.9668409,29.6746035 46.5992793,29.5854409 C44.043806,28.856241 42.7861777,26.3166673 41.7315033,23.1504618 C42.9816494,22.0150423 44.3727098,20.767702 45.9941586,19.2927789 C46.2463702,19.0633257 46.4954641,18.8460309 46.7426875,18.6340361 C49.3489772,16.6391021 52.526406,14.7461128 55.9417055,14.0190951 C56.1674177,13.9617318 56.2896265,13.9386618 56.2896265,13.9386618 C56.0018746,13.4757024 55.5516973,12.9478976 54.9627881,12.4525155 C54.9275595,12.422275 54.8917075,12.3923464 54.8552319,12.3621059 C54.8274855,12.3396594 54.7997391,12.3175246 54.771681,12.2950781 C53.946148,11.6307237 52.8104168,10.9975449 51.3217764,10.7765091 C50.95515,10.7182105 50.5729358,10.6845407 50.1748219,10.682982 C47.9781811,10.673941 46.2413821,11.6678228 44.1226805,13.4629204 C42.4974905,14.8399517 41.1538173,16.1387319 39.8737424,17.507034 C39.2801569,15.2224777 38.8945133,13.1795331 38.6553955,11.9758388 C38.5603096,11.4963563 38.5263281,11.0748607 38.0923621,11.0019095 C37.8984492,10.9542107 37.6184913,10.9828923 37.1969956,11.1234948 C36.1869025,11.4605043 35.3267645,12.7489965 35.3666695,14.2276607 C35.4402441,16.9630178 35.8127939,19.6279179 36.2470716,21.6711742 C33.9843383,24.3672499 32.6228949,25.9375706 30.4761352,28.1413819 C28.7278011,29.935856 26.9916256,30.6463505 25.7280739,30.5500175 C25.5481901,30.5328709 25.3782824,30.4995129 25.219598,30.4499435 C23.3284792,29.8591637 21.8438917,27.4966681 24.5808076,21.2409493 L24.5811194,21.2406375 C24.7005224,20.9734617 24.825537,20.6978684 24.9605278,20.4113635 C25.0259968,20.2754374 25.0920894,20.1401348 25.1594289,20.0073263 L25.1544408,20.0073263 C25.6376644,19.0190562 26.2642962,17.8814543 27.2366667,16.4470597 C29.0978569,13.7020381 30.8907722,12.2679553 30.8907722,12.2679553 C29.8962669,11.5069561 28.7982582,11.0386969 27.7036789,10.8273255 C25.8724175,10.4603874 24.0461441,10.8129847 22.7246056,11.7264331 C21.6231676,12.4871205 20.657344,13.6780328 19.8115469,15.0279412 C18.9997313,16.3245392 18.1698338,17.8802073 17.1572466,20.2536144 C17.1563113,20.2548615 17.1559996,20.2561085 17.1553761,20.2576673 C16.7441684,21.2035384 16.3809713,22.0867464 16.0639143,22.8143876 C13.7229299,28.1887689 11.1047935,30.3913332 8.95117513,30.32867 C8.74292136,30.318382 8.53872043,30.2881415 8.34013113,30.2360781 C7.10276704,29.9121624 6.4462065,28.8194536 6.32306243,27.1387709 C6.16593683,24.9901407 7.21499961,22.2650715 8.00405693,20.5438603 C8.0704612,20.3982697 8.13780075,20.2545497 8.20607556,20.1120767 C8.21075192,20.1021005 8.21574003,20.0918125 8.22041639,20.082148 C10.5794827,15.183508 13.9673475,12.2109037 13.9673475,12.2109037 C13.4195902,11.4960446 12.2240016,10.9339465 11.0084605,10.6901524 C10.4628855,10.5760493 9.91138712,10.5255446 9.41008164,10.5536027 C6.82467967,10.6998168 5.25965882,11.9976618 3.95713748,13.6175519 C2.40271638,15.5504462 1.0263086,18.224699 0.534979344,20.2576673 C0.534979344,20.2586025 0.534979344,20.2595378 0.534667586,20.2601613 C0.100389889,21.8120884 -0.116281324,23.6018861 0.0632907889,25.6507541 C0.46015763,30.1890028 3.23635497,32.6412844 6.82218561,33.0287986 C7.08967324,33.057792 7.35217275,33.0752504 7.61124293,33.0839796 C11.259425,33.232376 14.1120028,31.4469428 16.7541446,28.6189938 C18.7590548,32.5536807 22.2251707,33.1491368 24.7129927,33.2236468 C24.9742452,33.2320642 25.2255214,33.23487 25.4633921,33.23487 C28.8247576,33.23487 32.5914074,31.7424886 37.9396011,26.6898406 C40.1109896,31.1716613 43.0779823,32.7494642 46.0864388,32.8894431 C46.0914269,32.8903784 46.0961032,32.8894431 46.1010913,32.8894431 C46.1048324,32.8897549 46.1082618,32.8897549 46.1120028,32.8897549 C46.1179262,32.8900666 46.1238496,32.8910019 46.1300848,32.8913137 C46.1335141,32.8913137 46.1372552,32.8910019 46.1409963,32.8910019 C46.2719343,32.8984841 46.4013135,32.9040957 46.5285104,32.9065898 C50.3553293,32.9951288 52.4123029,30.8583453 52.8132226,30.394139 C52.680414,30.7635712 52.1703794,32.2101243 51.8205879,33.6326721 C50.5464364,38.8165699 54.9029307,40 54.9029307,40 C54.903866,39.9959472 54.9048013,39.9915826 54.9054248,39.987218 C54.928183,39.9943884 54.9428356,39.998753 54.9428356,39.998753 C55.8123263,35.0505436 57.9643858,31.4550485 60.0952459,28.7249912 C64.2893147,23.3509216 68.840969,23.1033865 70.5437865,23.3873972 C70.555945,23.3895795 70.5665448,23.3917618 70.5783915,23.3939441 C72.9284169,23.7986049 73.2573206,24.512217 73.8378124,27.0299677 C74.3693584,29.3357235 75.6905851,31.7262772 78.5815091,32.860138 C79.6090606,33.2635517 80.7572622,33.4627645 81.8939287,33.5142044 C83.7825535,33.6036787 85.6418731,33.2828806 86.8639611,32.8068275 C89.8892524,31.6293208 92.7256188,29.6518452 94.7766691,26.6614707 C96.9265463,23.5258174 97.3352599,20.6947508 97.1578701,18.759986 C96.9857802,16.8791551 96.5278089,16.2634348 96.5278089,16.2634348 C99.5571531,17.2361171 101.639379,16.2344414 101.808663,16.1490199 C102.129149,18.2231402 102.686571,19.8770118 103.469082,21.6312692 C101.049535,24.9315303 98.9199215,28.3783173 97.9687504,30.7941234 C97.1999573,32.7460348 98.1729514,33.2102412 99.1309811,33.2775808 C99.5100777,33.3065742 99.8891744,33.2722809 100.158533,33.2420405 C100.992483,31.9507424 102.63669,29.2761779 105.725892,26.0759908 C109.725736,32.0137173 114.929274,33.9933752 121.248591,34.0257979 C135.441959,34.0990608 145.309696,23.8297806 143.604696,13.2746191 L143.604696,13.2746191 Z" id="Logotype" fill="url(#linearGradient-1)" sketch:type="MSShapeGroup"></path>
    </g>
</svg>